<svg width="30" height="40" viewBox="0 0 30 40" fill="none" xmlns="http://www.w3.org/2000/svg">
<path d="M8.90623 29.5152H1.25274C0.15852 29.5152 -0.428769 30.893 0.369459 31.7175L8.02295 39.6205C8.81017 40.4331 10.1558 39.8533 10.1558 38.7084V30.8055C10.1558 30.0926 9.59661 29.5152 8.90623 29.5152ZM25.7752 0H3.75184C1.68149 0 0.00318513 1.73301 0.00318513 3.87084V27.1338C0.00318513 27.8483 0.565483 28.4265 1.2582 28.4241C2.40779 28.4192 4.75929 28.4265 9.70048 28.4265C10.5346 28.4265 11.2101 29.1241 11.2101 29.9853C11.2101 35.0884 11.2171 37.5157 11.2124 38.7028C11.2101 39.4181 11.77 39.9987 12.462 39.9987H25.7752C27.8455 39.9987 29.5238 38.2657 29.5238 36.1279V3.87084C29.5238 1.73301 27.8455 0 25.7752 0V0ZM14.712 4.06197C17.0314 4.06197 18.9183 6.01029 18.9183 8.40537C18.9183 10.7997 17.0314 12.748 14.712 12.748C12.3933 12.748 10.5064 10.7997 10.5064 8.40537C10.5064 6.01029 12.3933 4.06197 14.712 4.06197ZM8.38532 17.2986C8.38532 16.1833 9.02259 15.1681 10.009 14.7132C12.1875 13.709 12.1546 13.6875 12.5002 13.6875H16.8955C17.2472 13.6875 17.2328 13.7199 19.3868 14.7132C20.374 15.1681 21.0112 16.1833 21.0112 17.2986V19.0679C21.0112 19.7808 20.4521 20.3582 19.7617 20.3582H9.63487C8.9445 20.3582 8.38532 19.7808 8.38532 19.0679V17.2986ZM21.7922 33.9505H14.5292C13.8388 33.9505 13.2797 33.3731 13.2797 32.6602C13.2797 31.9474 13.8388 31.37 14.5292 31.37H21.7922C22.4826 31.37 23.0418 31.9474 23.0418 32.6602C23.0418 33.3731 22.4826 33.9505 21.7922 33.9505ZM21.7922 26.5314H7.65668C6.9663 26.5314 6.40713 25.954 6.40713 25.2411C6.40713 24.5282 6.9663 23.9508 7.65668 23.9508H21.7922C22.4826 23.9508 23.0418 24.5282 23.0418 25.2411C23.0418 25.954 22.4826 26.5314 21.7922 26.5314Z" />
</svg>
