<svg width="40" height="41" viewBox="0 0 40 41" fill="none" xmlns="http://www.w3.org/2000/svg">
<path d="M29.2821 38.4312C25.834 39.9831 22.8452 40.5 18.7646 40.5C9.22462 40.5 0.833374 33.6606 0.833374 22.3969C0.833374 10.6725 9.339 0.5 22.3284 0.5C32.4434 0.5 39.6846 7.45438 39.6846 17.1094C39.6846 25.5 34.9721 30.7875 28.7652 30.7875C26.064 30.7875 24.1102 29.4081 23.8227 26.3619H23.7078C21.9265 29.2931 19.3402 30.7875 16.294 30.7875C12.5584 30.7875 9.85712 28.0287 9.85712 23.3156C9.85712 16.3044 15.0296 9.925 23.3053 9.925C25.834 9.925 28.7071 10.5575 30.1446 11.3619L28.4209 21.9944C27.8465 25.3844 28.2484 26.9369 29.8578 26.9937C32.329 27.0512 35.4321 23.89 35.4321 17.2812C35.4321 9.81 30.6046 4.005 21.6959 4.005C12.9034 4.005 5.2015 10.9019 5.2015 21.8787C5.2015 31.4762 11.3509 36.9362 19.9146 36.9362C22.8459 36.9362 25.9496 36.3044 28.2477 35.0969L29.2821 38.4312ZM24.1671 14.6956C23.7071 14.5806 23.1321 14.4656 22.3853 14.4656C18.5928 14.4656 15.6034 18.2013 15.6034 22.6262C15.6034 24.81 16.5809 26.1894 18.4771 26.1894C20.6034 26.1894 22.8452 23.4881 23.3621 20.155L24.1671 14.6956Z" />
</svg>
