<svg width="32" height="41" viewBox="0 0 32 41" fill="none" xmlns="http://www.w3.org/2000/svg">
<path d="M31.7355 17.2731C31.884 16.3338 31.9767 15.304 32 14.1493C31.9911 9.1978 29.6197 7.44574 29.1634 6.62436C29.8354 2.87269 29.0521 1.16617 28.6878 0.581983C27.3442 0.105272 24.013 1.81237 22.1929 3.0141C19.2254 2.14584 12.9542 2.23058 10.6024 3.23883C6.26322 0.133186 3.9682 0.606721 3.9682 0.606721C3.9682 0.606721 2.48449 3.26607 3.57598 7.15657C2.14828 8.97507 1.08414 10.2608 1.08414 13.6711C1.08414 14.4879 1.13489 15.2597 1.22101 16.0023C2.45054 22.4641 7.5731 25.2519 12.6049 25.7326C11.8477 26.3077 10.9387 27.396 10.8129 28.657C9.86151 29.2719 7.94769 29.4752 6.45946 29.0075C4.37423 28.3489 3.57598 24.2215 0.453277 24.8103C-0.222401 24.9366 -0.0881181 25.3821 0.497006 25.7618C1.44836 26.3786 2.34435 27.1453 3.035 28.786C3.56544 30.0456 4.68109 32.2946 8.20839 32.2946C9.60866 32.2946 10.5894 32.1292 10.5894 32.1292C10.5894 32.1292 10.6161 35.339 10.6161 36.5909C10.6161 38.0316 8.67094 38.4361 8.67094 39.1272C8.67094 39.4021 9.31476 39.4282 9.83216 39.4282C10.8547 39.4282 12.9821 38.5769 12.9821 37.0795C12.9821 35.8896 13.0011 31.8911 13.0011 31.1908C13.0011 29.6608 13.8214 29.1736 13.8214 29.1736C13.8214 29.1736 13.9218 37.3411 13.624 38.4361C13.2748 39.7239 12.6421 39.5409 12.6421 40.114C12.6421 40.9692 15.1997 40.3231 16.048 38.4511C16.7043 36.989 16.4104 28.9795 16.4104 28.9795L17.0946 28.9646C17.0946 28.9646 17.1025 32.6329 17.0789 34.3087C17.0542 36.0445 16.8751 38.2388 17.9065 39.2745C18.5835 39.9556 20.6576 41.1508 20.6576 40.0586C20.6576 39.4256 19.2052 38.9025 19.2052 37.1875V29.2874C20.0876 29.2874 20.2699 31.8842 20.2699 31.8842L20.588 36.7087C20.588 36.7087 20.3768 38.4692 22.4907 39.2039C23.2369 39.4652 24.8334 39.5362 24.9082 39.0977C24.9832 38.6581 22.9859 38.0081 22.9669 36.6455C22.9567 35.8156 23.0042 35.3298 23.0042 31.7201C23.0042 28.1123 22.5193 26.7777 20.8296 25.7141C25.7294 25.2115 30.8187 23.0243 31.7355 17.2731Z" />
</svg>
